<svg width="56" height="55" viewBox="0 0 56 55" fill="none" xmlns="http://www.w3.org/2000/svg">
<path opacity="0.06" d="M43.7979 0H12.2021C5.73922 0 0.5 5.23922 0.5 11.7021V43.2979C0.5 49.7608 5.73922 55 12.2021 55H43.7979C50.2608 55 55.5 49.7608 55.5 43.2979V11.7021C55.5 5.23922 50.2608 0 43.7979 0Z" fill="#24A148"/>
<path d="M35.8463 26.1161H41.1649C40.8568 23.0965 39.5167 20.2757 37.3704 18.1294C35.2242 15.9832 32.4033 14.643 29.3838 14.335V19.6536C30.9976 19.929 32.4861 20.6986 33.6437 21.8562C34.8013 23.0138 35.5709 24.5023 35.8463 26.1161Z" fill="#24A148"/>
<path d="M28.0677 35.4497C26.0873 35.4514 24.1787 34.7086 22.7204 33.3688C21.2621 32.029 20.3607 30.1899 20.1949 28.2165C20.0292 26.2431 20.6114 24.2795 21.8258 22.7152C23.0403 21.151 24.7983 20.1003 26.7512 19.7717V14.4531C24.272 14.702 21.9143 15.6494 19.9522 17.1851C17.99 18.7209 16.504 20.7819 15.6668 23.1287C14.8295 25.4755 14.6755 28.0118 15.2226 30.4427C15.7697 32.8736 16.9954 35.0993 18.7573 36.8612C20.5192 38.623 22.7449 39.8488 25.1758 40.3958C27.6067 40.9429 30.1429 40.7889 32.4897 39.9517C34.8365 39.1145 36.8976 37.6284 38.4333 35.6663C39.969 33.7041 40.9164 31.3464 41.1653 28.8672H35.8467C35.5349 30.7057 34.5831 32.3748 33.1596 33.5794C31.736 34.7839 29.9325 35.4464 28.0677 35.4497Z" fill="#24A148"/>
</svg>
