<svg width="55" height="55" viewBox="0 0 55 55" fill="none" xmlns="http://www.w3.org/2000/svg">
<path opacity="0.06" d="M43.2979 0H11.7021C5.23922 0 0 5.23922 0 11.7021V43.2979C0 49.7608 5.23922 55 11.7021 55H43.2979C49.7608 55 55 49.7608 55 43.2979V11.7021C55 5.23922 49.7608 0 43.2979 0Z" fill="#DA1E28"/>
<path d="M35.3463 26.1161H40.6649C40.3568 23.0965 39.0167 20.2757 36.8704 18.1294C34.7242 15.9832 31.9033 14.643 28.8838 14.335V19.6536C30.4976 19.929 31.9861 20.6986 33.1437 21.8562C34.3013 23.0138 35.0709 24.5023 35.3463 26.1161Z" fill="#DA1E28"/>
<path d="M27.5677 35.4497C25.5873 35.4514 23.6787 34.7086 22.2204 33.3688C20.7621 32.029 19.8607 30.1899 19.6949 28.2165C19.5292 26.2431 20.1114 24.2795 21.3258 22.7152C22.5403 21.151 24.2983 20.1003 26.2512 19.7717V14.4531C23.772 14.702 21.4143 15.6494 19.4522 17.1851C17.49 18.7209 16.004 20.7819 15.1668 23.1287C14.3295 25.4755 14.1755 28.0118 14.7226 30.4427C15.2697 32.8736 16.4954 35.0993 18.2573 36.8612C20.0192 38.623 22.2449 39.8488 24.6758 40.3958C27.1067 40.9429 29.6429 40.7889 31.9897 39.9517C34.3365 39.1145 36.3976 37.6284 37.9333 35.6663C39.469 33.7041 40.4164 31.3464 40.6653 28.8672H35.3467C35.0349 30.7057 34.0831 32.3748 32.6596 33.5794C31.236 34.7839 29.4325 35.4464 27.5677 35.4497Z" fill="#DA1E28"/>
</svg>
