<svg width="24" height="24" viewBox="0 0 24 24" fill="none" xmlns="http://www.w3.org/2000/svg">
<g id="add_ad_FILL0_wght300_GRAD0_opsz24 1">
<path id="Vector" d="M18.0961 19.6923V16.6923H15.0961V15.1923H18.0961V12.1923H19.5961V15.1923H22.5961V16.6923H19.5961V19.6923H18.0961ZM3.21148 20.5C2.70637 20.5 2.27881 20.325 1.92881 19.975C1.57881 19.625 1.40381 19.1974 1.40381 18.6923V5.3077C1.40381 4.80257 1.57881 4.375 1.92881 4.025C2.27881 3.675 2.70637 3.5 3.21148 3.5H16.5961C17.1012 3.5 17.5287 3.675 17.8787 4.025C18.2287 4.375 18.4037 4.80257 18.4037 5.3077V9.99998H16.9038V7.69225H2.90378V18.6923C2.90378 18.782 2.93263 18.8557 2.99031 18.9134C3.04801 18.9711 3.12173 19 3.21148 19H15.9038V20.5H3.21148ZM2.90378 6.1923H16.9038V5.3077C16.9038 5.21795 16.8749 5.14423 16.8172 5.08653C16.7595 5.02883 16.6858 4.99998 16.5961 4.99998H3.21148C3.12173 4.99998 3.04801 5.02883 2.99031 5.08653C2.93263 5.14423 2.90378 5.21795 2.90378 5.3077V6.1923Z" fill="#525252"/>
</g>
</svg>
